<svg xmlns="http://www.w3.org/2000/svg" viewBox="0 0 200 200" width="200" height="200" role="img" aria-label="Portrait illustration of Sumati">
  <defs>
    <linearGradient id="bg" x1="0" y1="0" x2="1" y2="1">
      <stop offset="0" stop-color="#ffd9e0"/>
      <stop offset="1" stop-color="#e7b6e0"/>
    </linearGradient>
  </defs>
  <rect width="200" height="200" fill="url(#bg)"/>
  <circle cx="100" cy="170" r="78" fill="#fff0f4"/>
  <circle cx="100" cy="86" r="42" fill="#f4c9a8"/>
  <path d="M58 80 q0 -44 42 -44 t42 44 q-10 -6 -14 -18 q-18 14 -56 8 q-8 6 -14 10Z" fill="#43233f"/>
  <path d="M60 86 q-8 26 6 44 q-20 -6 -22 -30 q2 -14 16 -14Z" fill="#43233f"/>
  <path d="M140 86 q8 26 -6 44 q20 -6 22 -30 q-2 -14 -16 -14Z" fill="#43233f"/>
  <path d="M70 150 q30 24 60 0 q22 8 26 50 H44 q4 -42 26 -50Z" fill="#c97ba1"/>
  <circle cx="86" cy="88" r="4" fill="#43233f"/>
  <circle cx="114" cy="88" r="4" fill="#43233f"/>
  <path d="M90 104 q10 8 20 0" stroke="#b5736a" stroke-width="3" fill="none" stroke-linecap="round"/>
</svg>
